<mxfile host="app.diagrams.net" modified="2022-12-03T19:50:46.071Z" agent="5.0 (Windows NT 10.0; Win64; x64) AppleWebKit/537.36 (KHTML, like Gecko) Chrome/108.0.0.0 Safari/537.36" etag="DRffhDcuiv4OBP1CS0fH" version="20.6.0" type="github">
  <diagram name="Page-1" id="c4acf3e9-155e-7222-9cf6-157b1a14988f">
    <mxGraphModel dx="1750" dy="2317" grid="1" gridSize="10" guides="1" tooltips="1" connect="1" arrows="1" fold="1" page="1" pageScale="1" pageWidth="850" pageHeight="1100" background="none" math="0" shadow="0">
      <root>
        <mxCell id="0" />
        <mxCell id="1" parent="0" />
        <mxCell id="jgdyQDmVgWlT551Rcglq-1" value="&lt;p style=&quot;margin:0px;margin-top:4px;text-align:center;&quot;&gt;&lt;br&gt;&lt;b&gt;ServicoBase&lt;/b&gt;&lt;/p&gt;&lt;hr size=&quot;1&quot;&gt;&lt;p style=&quot;margin:0px;margin-left:4px;&quot;&gt;&lt;br&gt;&lt;/p&gt;&lt;hr size=&quot;1&quot;&gt;&lt;p style=&quot;margin:0px;margin-left:4px;&quot;&gt;+ void RegistrarHistorico(Pessoa pessoa, string acao) : void&lt;/p&gt;" style="verticalAlign=top;align=left;overflow=fill;fontSize=12;fontFamily=Helvetica;html=1;rounded=0;shadow=0;comic=0;labelBackgroundColor=none;strokeWidth=1" vertex="1" parent="1">
          <mxGeometry x="1190" y="30" width="340" height="140" as="geometry" />
        </mxCell>
        <mxCell id="jgdyQDmVgWlT551Rcglq-35" style="edgeStyle=orthogonalEdgeStyle;rounded=0;orthogonalLoop=1;jettySize=auto;html=1;exitX=0.5;exitY=0;exitDx=0;exitDy=0;entryX=0.75;entryY=1;entryDx=0;entryDy=0;endArrow=block;endFill=0;" edge="1" parent="1" source="jgdyQDmVgWlT551Rcglq-2" target="jgdyQDmVgWlT551Rcglq-33">
          <mxGeometry relative="1" as="geometry">
            <Array as="points">
              <mxPoint x="1510" y="1690" />
              <mxPoint x="1355" y="1690" />
            </Array>
          </mxGeometry>
        </mxCell>
        <mxCell id="jgdyQDmVgWlT551Rcglq-2" value="&lt;p style=&quot;margin:0px;margin-top:4px;text-align:center;&quot;&gt;&lt;br&gt;&lt;b&gt;ContaServico&lt;/b&gt;&lt;/p&gt;&lt;hr size=&quot;1&quot;&gt;&lt;p style=&quot;margin:0px;margin-left:4px;&quot;&gt;&lt;br&gt;&lt;/p&gt;&lt;hr size=&quot;1&quot;&gt;&lt;p style=&quot;margin:0px;margin-left:4px;&quot;&gt;+ CriarContaAdmin(string usuario, string senha) : Admin&lt;/p&gt;&lt;p style=&quot;margin:0px;margin-left:4px;&quot;&gt;+ CriarUsuario(string usuario, string senha) : Usuario&lt;/p&gt;&lt;p style=&quot;margin:0px;margin-left:4px;&quot;&gt;+ ObterUsuario(string usuario, string senha) : Usuario&lt;/p&gt;" style="verticalAlign=top;align=left;overflow=fill;fontSize=12;fontFamily=Helvetica;html=1;rounded=0;shadow=0;comic=0;labelBackgroundColor=none;strokeWidth=1" vertex="1" parent="1">
          <mxGeometry x="1330" y="1740" width="360" height="140" as="geometry" />
        </mxCell>
        <mxCell id="jgdyQDmVgWlT551Rcglq-38" style="edgeStyle=orthogonalEdgeStyle;rounded=0;orthogonalLoop=1;jettySize=auto;html=1;exitX=0.5;exitY=0;exitDx=0;exitDy=0;endArrow=block;endFill=0;entryX=0.75;entryY=1;entryDx=0;entryDy=0;" edge="1" parent="1" source="jgdyQDmVgWlT551Rcglq-3" target="jgdyQDmVgWlT551Rcglq-1">
          <mxGeometry relative="1" as="geometry">
            <mxPoint x="1360" y="170" as="targetPoint" />
            <Array as="points">
              <mxPoint x="1500" y="240" />
              <mxPoint x="1445" y="240" />
            </Array>
          </mxGeometry>
        </mxCell>
        <mxCell id="jgdyQDmVgWlT551Rcglq-3" value="&lt;p style=&quot;margin:0px;margin-top:4px;text-align:center;&quot;&gt;&lt;br&gt;&lt;b&gt;ContaServico&lt;/b&gt;&lt;/p&gt;&lt;hr size=&quot;1&quot;&gt;&lt;p style=&quot;margin: 0px 0px 0px 4px;&quot;&gt;-&amp;nbsp;_usuario : Usuario&lt;/p&gt;&lt;p style=&quot;margin: 0px 0px 0px 4px;&quot;&gt;- _admin : Admin&lt;/p&gt;&lt;hr size=&quot;1&quot;&gt;&lt;p style=&quot;margin:0px;margin-left:4px;&quot;&gt;+ CriarContaAdmin(string usuario, string senha) : Admin&lt;/p&gt;&lt;p style=&quot;margin:0px;margin-left:4px;&quot;&gt;+ CriarUsuario(string usuario, string senha) : Usuario&lt;br&gt;&lt;/p&gt;&lt;p style=&quot;margin:0px;margin-left:4px;&quot;&gt;+ ObterUsuario(string usuario, string senha) : Usuario&lt;/p&gt;&amp;nbsp;&lt;p style=&quot;margin:0px;margin-left:4px;&quot;&gt;&lt;br&gt;&lt;/p&gt;" style="verticalAlign=top;align=left;overflow=fill;fontSize=12;fontFamily=Helvetica;html=1;rounded=0;shadow=0;comic=0;labelBackgroundColor=none;strokeWidth=1" vertex="1" parent="1">
          <mxGeometry x="1350" y="610" width="320" height="140" as="geometry" />
        </mxCell>
        <mxCell id="jgdyQDmVgWlT551Rcglq-39" style="edgeStyle=orthogonalEdgeStyle;rounded=0;orthogonalLoop=1;jettySize=auto;html=1;exitX=0.5;exitY=0;exitDx=0;exitDy=0;entryX=0.5;entryY=1;entryDx=0;entryDy=0;endArrow=block;endFill=0;" edge="1" parent="1" source="jgdyQDmVgWlT551Rcglq-4" target="jgdyQDmVgWlT551Rcglq-1">
          <mxGeometry relative="1" as="geometry">
            <Array as="points">
              <mxPoint x="1115" y="560" />
              <mxPoint x="1470" y="560" />
              <mxPoint x="1470" y="260" />
              <mxPoint x="1360" y="260" />
            </Array>
          </mxGeometry>
        </mxCell>
        <mxCell id="jgdyQDmVgWlT551Rcglq-4" value="&lt;p style=&quot;margin:0px;margin-top:4px;text-align:center;&quot;&gt;&lt;br&gt;&lt;b&gt;AlguelServico&lt;/b&gt;&lt;/p&gt;&lt;hr size=&quot;1&quot;&gt;&lt;p style=&quot;margin: 0px 0px 0px 4px;&quot;&gt;-&amp;nbsp;_usuario : Usuario&lt;/p&gt;&lt;p style=&quot;margin: 0px 0px 0px 4px;&quot;&gt;- _admin : Admin&lt;/p&gt;&lt;hr size=&quot;1&quot;&gt;&lt;p style=&quot;margin:0px;margin-left:4px;&quot;&gt;- ObterLivrosAptosParaAluguel(List&amp;lt;Livro&amp;gt; livros) : List&amp;lt;Livro&amp;gt;&lt;br&gt;&lt;/p&gt;&lt;p style=&quot;margin:0px;margin-left:4px;&quot;&gt;- RealizarAluguel(List&amp;lt;Livro&amp;gt; livros) : void&lt;/p&gt;&lt;p style=&quot;margin:0px;margin-left:4px;&quot;&gt;- VerificarRegrasAluguel(List&amp;lt;Livro&amp;gt; livros, Usuario usuario) : bool&lt;/p&gt;&lt;p style=&quot;margin:0px;margin-left:4px;&quot;&gt;&lt;br&gt;&lt;/p&gt;&lt;p style=&quot;margin:0px;margin-left:4px;&quot;&gt;+ AlugarLivro(List&amp;lt;Livro&amp;gt; livros) : void&lt;br&gt;&lt;/p&gt;&lt;p style=&quot;margin:0px;margin-left:4px;&quot;&gt;+ RetirarAluguel(List&amp;lt;Livro&amp;gt; livros) : void&lt;br&gt;&lt;/p&gt;&lt;p style=&quot;margin:0px;margin-left:4px;&quot;&gt;&lt;br&gt;&lt;/p&gt;" style="verticalAlign=top;align=left;overflow=fill;fontSize=12;fontFamily=Helvetica;html=1;rounded=0;shadow=0;comic=0;labelBackgroundColor=none;strokeWidth=1" vertex="1" parent="1">
          <mxGeometry x="930" y="830" width="370" height="180" as="geometry" />
        </mxCell>
        <mxCell id="jgdyQDmVgWlT551Rcglq-36" style="edgeStyle=orthogonalEdgeStyle;rounded=0;orthogonalLoop=1;jettySize=auto;html=1;exitX=0.5;exitY=0;exitDx=0;exitDy=0;endArrow=block;endFill=0;entryX=0.5;entryY=1;entryDx=0;entryDy=0;" edge="1" parent="1" source="jgdyQDmVgWlT551Rcglq-5" target="jgdyQDmVgWlT551Rcglq-33">
          <mxGeometry relative="1" as="geometry">
            <mxPoint x="1330" y="1390" as="targetPoint" />
            <Array as="points">
              <mxPoint x="1085" y="1950" />
              <mxPoint x="1085" y="1690" />
              <mxPoint x="1320" y="1690" />
              <mxPoint x="1320" y="1350" />
              <mxPoint x="1270" y="1350" />
            </Array>
          </mxGeometry>
        </mxCell>
        <mxCell id="jgdyQDmVgWlT551Rcglq-5" value="&lt;p style=&quot;margin:0px;margin-top:4px;text-align:center;&quot;&gt;&lt;br&gt;&lt;b&gt;ReservaServico&lt;/b&gt;&lt;/p&gt;&lt;hr size=&quot;1&quot;&gt;&lt;p style=&quot;margin: 0px 0px 0px 4px;&quot;&gt;-&amp;nbsp;_usuario : Usuario&lt;/p&gt;&lt;p style=&quot;margin: 0px 0px 0px 4px;&quot;&gt;- _admin : Admin&lt;/p&gt;&lt;hr size=&quot;1&quot;&gt;&lt;p style=&quot;margin:0px;margin-left:4px;&quot;&gt;+ ReservarLivro(List&amp;lt;Livro&amp;gt; livros) : void&lt;/p&gt;&lt;p style=&quot;margin:0px;margin-left:4px;&quot;&gt;&lt;br&gt;&lt;/p&gt;" style="verticalAlign=top;align=left;overflow=fill;fontSize=12;fontFamily=Helvetica;html=1;rounded=0;shadow=0;comic=0;labelBackgroundColor=none;strokeWidth=1" vertex="1" parent="1">
          <mxGeometry x="925" y="1950" width="340" height="140" as="geometry" />
        </mxCell>
        <mxCell id="jgdyQDmVgWlT551Rcglq-34" style="edgeStyle=orthogonalEdgeStyle;rounded=0;orthogonalLoop=1;jettySize=auto;html=1;exitX=0.5;exitY=0;exitDx=0;exitDy=0;entryX=0.25;entryY=1;entryDx=0;entryDy=0;endArrow=block;endFill=0;" edge="1" parent="1" source="jgdyQDmVgWlT551Rcglq-6" target="jgdyQDmVgWlT551Rcglq-33">
          <mxGeometry relative="1" as="geometry">
            <Array as="points">
              <mxPoint x="1095" y="1350" />
              <mxPoint x="1185" y="1350" />
            </Array>
          </mxGeometry>
        </mxCell>
        <mxCell id="jgdyQDmVgWlT551Rcglq-6" value="&lt;p style=&quot;margin:0px;margin-top:4px;text-align:center;&quot;&gt;&lt;br&gt;&lt;b&gt;DoacaoServico&lt;/b&gt;&lt;/p&gt;&lt;hr size=&quot;1&quot;&gt;&lt;p style=&quot;margin: 0px 0px 0px 4px;&quot;&gt;-&amp;nbsp;_usuario : Usuario&lt;/p&gt;&lt;p style=&quot;margin: 0px 0px 0px 4px;&quot;&gt;- _admin : Admin&lt;/p&gt;&lt;hr size=&quot;1&quot;&gt;&lt;p style=&quot;margin:0px;margin-left:4px;&quot;&gt;+ DoarLivro(List&amp;lt;Livro&amp;gt; livros): void&lt;/p&gt;&lt;p style=&quot;margin:0px;margin-left:4px;&quot;&gt;+ RetirarDoacaoLivro(List&amp;lt;Livro&amp;gt; livros): void&lt;br&gt;&lt;/p&gt;&lt;p style=&quot;margin:0px;margin-left:4px;&quot;&gt;&lt;br&gt;&lt;/p&gt;&lt;p style=&quot;margin:0px;margin-left:4px;&quot;&gt;- ObterLivrosAptosParaDoacao(List&amp;lt;Livro&amp;gt; livros)&amp;nbsp; : List&amp;lt;Livro&amp;gt;&lt;/p&gt;&lt;p style=&quot;margin:0px;margin-left:4px;&quot;&gt;- RealizarDoacao(List&amp;lt;Livro&amp;gt; livros) : void&lt;/p&gt;&lt;p style=&quot;margin:0px;margin-left:4px;&quot;&gt;- VerificarRegrasDoacao(List&amp;lt;Livro&amp;gt; livros, Usuario _usuario) : bool&lt;/p&gt;&lt;p style=&quot;margin:0px;margin-left:4px;&quot;&gt;&lt;br&gt;&lt;/p&gt;" style="verticalAlign=top;align=left;overflow=fill;fontSize=12;fontFamily=Helvetica;html=1;rounded=0;shadow=0;comic=0;labelBackgroundColor=none;strokeWidth=1" vertex="1" parent="1">
          <mxGeometry x="900" y="1430" width="390" height="183.5" as="geometry" />
        </mxCell>
        <mxCell id="jgdyQDmVgWlT551Rcglq-40" style="edgeStyle=orthogonalEdgeStyle;rounded=0;orthogonalLoop=1;jettySize=auto;html=1;exitX=0.5;exitY=0;exitDx=0;exitDy=0;entryX=0.75;entryY=1;entryDx=0;entryDy=0;endArrow=block;endFill=0;" edge="1" parent="1" source="jgdyQDmVgWlT551Rcglq-7" target="jgdyQDmVgWlT551Rcglq-32">
          <mxGeometry relative="1" as="geometry">
            <Array as="points">
              <mxPoint x="2275" y="220" />
              <mxPoint x="2175" y="220" />
            </Array>
          </mxGeometry>
        </mxCell>
        <mxCell id="jgdyQDmVgWlT551Rcglq-7" value="&lt;p style=&quot;margin:0px;margin-top:4px;text-align:center;&quot;&gt;&lt;br&gt;&lt;b&gt;BibliotecaServico&lt;/b&gt;&lt;/p&gt;&lt;hr size=&quot;1&quot;&gt;&lt;p style=&quot;margin: 0px 0px 0px 4px;&quot;&gt;-&amp;nbsp;_usuario : Usuario&lt;/p&gt;&lt;p style=&quot;margin: 0px 0px 0px 4px;&quot;&gt;- _admin : Admin&lt;/p&gt;&lt;p style=&quot;margin: 0px 0px 0px 4px;&quot;&gt;- _alguelServico : AluguelServico&lt;/p&gt;&lt;p style=&quot;margin: 0px 0px 0px 4px;&quot;&gt;- _doacaoServico : AluguelServico&lt;/p&gt;&lt;p style=&quot;margin: 0px 0px 0px 4px;&quot;&gt;- _gerencimantoServico : GerenciamentoServico&lt;/p&gt;&lt;p style=&quot;margin: 0px 0px 0px 4px;&quot;&gt;- _historicoServico : HistoricoServico&lt;/p&gt;&lt;p style=&quot;margin: 0px 0px 0px 4px;&quot;&gt;- _inventarioServico : InventarioServico&lt;/p&gt;&lt;p style=&quot;margin: 0px 0px 0px 4px;&quot;&gt;- _reservaServico : ReservaServico&lt;/p&gt;&lt;p style=&quot;margin: 0px 0px 0px 4px;&quot;&gt;&lt;br&gt;&lt;/p&gt;&lt;hr size=&quot;1&quot;&gt;&lt;p style=&quot;margin:0px;margin-left:4px;&quot;&gt;&lt;/p&gt;&amp;nbsp;- ObterCriteriosDoacao(Usuario usuario) : List&amp;lt;CriteriosDoacao&amp;gt;&lt;br&gt;&amp;nbsp;- ObterVatagensPontuacao(Usuario usuario) : List&amp;lt;VantagensPontuacao&amp;gt;&lt;br&gt;&lt;p style=&quot;margin:0px;margin-left:4px;&quot;&gt;- VerBiblioteca() : void&lt;/p&gt;&lt;p style=&quot;margin:0px;margin-left:4px;&quot;&gt;+ RealizarLogin(Usuario novaconta) : bool&lt;/p&gt;&lt;p style=&quot;margin:0px;margin-left:4px;&quot;&gt;+ RealizarLogin(string usuario, string senha) : bool&lt;/p&gt;&lt;p style=&quot;margin:0px;margin-left:4px;&quot;&gt;+ IsAdmin(string usuario, string senha) : bool&lt;/p&gt;&lt;p style=&quot;margin:0px;margin-left:4px;&quot;&gt;+&amp;nbsp;IniciarServico : void&lt;/p&gt;&lt;p style=&quot;margin:0px;margin-left:4px;&quot;&gt;+&amp;nbsp;CriarConta : Usuario&lt;/p&gt;" style="verticalAlign=top;align=left;overflow=fill;fontSize=12;fontFamily=Helvetica;html=1;rounded=0;shadow=0;comic=0;labelBackgroundColor=none;strokeWidth=1" vertex="1" parent="1">
          <mxGeometry x="2025" y="280" width="500" height="322" as="geometry" />
        </mxCell>
        <mxCell id="jgdyQDmVgWlT551Rcglq-41" style="edgeStyle=orthogonalEdgeStyle;rounded=0;orthogonalLoop=1;jettySize=auto;html=1;exitX=0.5;exitY=0;exitDx=0;exitDy=0;entryX=0.25;entryY=1;entryDx=0;entryDy=0;endArrow=block;endFill=0;" edge="1" parent="1" source="jgdyQDmVgWlT551Rcglq-8" target="jgdyQDmVgWlT551Rcglq-32">
          <mxGeometry relative="1" as="geometry">
            <Array as="points">
              <mxPoint x="1930" y="220" />
              <mxPoint x="2005" y="220" />
            </Array>
          </mxGeometry>
        </mxCell>
        <mxCell id="jgdyQDmVgWlT551Rcglq-8" value="&lt;p style=&quot;margin:0px;margin-top:4px;text-align:center;&quot;&gt;&lt;br&gt;&lt;b&gt;HistoricoServico&lt;/b&gt;&lt;/p&gt;&lt;hr size=&quot;1&quot;&gt;&lt;p style=&quot;margin: 0px 0px 0px 4px;&quot;&gt;-&amp;nbsp;_usuario : Usuario&lt;/p&gt;&lt;p style=&quot;margin: 0px 0px 0px 4px;&quot;&gt;- _admin : Admin&lt;/p&gt;&lt;hr size=&quot;1&quot;&gt;&lt;p style=&quot;margin:0px;margin-left:4px;&quot;&gt;+ void RegistrarHistorico(Pessoa pessoa, string acao) : void&lt;br&gt;&lt;/p&gt;&lt;p style=&quot;margin:0px;margin-left:4px;&quot;&gt;&lt;br&gt;&lt;/p&gt;" style="verticalAlign=top;align=left;overflow=fill;fontSize=12;fontFamily=Helvetica;html=1;rounded=0;shadow=0;comic=0;labelBackgroundColor=none;strokeWidth=1" vertex="1" parent="1">
          <mxGeometry x="1760" y="700" width="340" height="140" as="geometry" />
        </mxCell>
        <mxCell id="jgdyQDmVgWlT551Rcglq-37" style="edgeStyle=orthogonalEdgeStyle;rounded=0;orthogonalLoop=1;jettySize=auto;html=1;exitX=0.5;exitY=0;exitDx=0;exitDy=0;endArrow=block;endFill=0;entryX=0.25;entryY=1;entryDx=0;entryDy=0;" edge="1" parent="1" source="jgdyQDmVgWlT551Rcglq-9" target="jgdyQDmVgWlT551Rcglq-1">
          <mxGeometry relative="1" as="geometry">
            <mxPoint x="1290" y="200" as="targetPoint" />
            <Array as="points">
              <mxPoint x="1145" y="240" />
              <mxPoint x="1275" y="240" />
            </Array>
          </mxGeometry>
        </mxCell>
        <mxCell id="jgdyQDmVgWlT551Rcglq-9" value="&lt;p style=&quot;margin:0px;margin-top:4px;text-align:center;&quot;&gt;&lt;br&gt;&lt;b&gt;GerenciamentoServico&lt;/b&gt;&lt;/p&gt;&lt;hr size=&quot;1&quot;&gt;&lt;p style=&quot;margin: 0px 0px 0px 4px;&quot;&gt;&lt;span style=&quot;background-color: initial;&quot;&gt;- _admin : Admin&lt;/span&gt;&lt;/p&gt;&lt;hr size=&quot;1&quot;&gt;&lt;p style=&quot;margin:0px;margin-left:4px;&quot;&gt;&lt;/p&gt;&amp;nbsp;&lt;span style=&quot;background-color: initial;&quot;&gt;+ Adicionar(Usuario usuario) : void&lt;br&gt;&lt;/span&gt;&amp;nbsp;+ AdicionarCriterioDoacao(List&amp;lt;CriteriosDoacao&amp;gt; criteriosDoacoes) : void&lt;br&gt;&amp;nbsp;+ AdicionarVatagensPontuacao(List&amp;lt;VantagensPontuacao&amp;gt; criteriosVantagensPontuacao) : void&lt;br&gt;&amp;nbsp;+ Atualizar(Biblioteca biblioteca) : void&lt;br&gt;&amp;nbsp;+ Atualizar(Usuario usuario) : void&lt;br&gt;&amp;nbsp;+ Remover(Usuario usuario) : void&lt;br&gt;&amp;nbsp;+ RemoverCriterioDoacao(List&amp;lt;CriteriosDoacao&amp;gt; criteriosDoacoes) : void&lt;br&gt;&amp;nbsp;+ RemoverVatagensPontuacao(List&amp;lt;VantagensPontuacao&amp;gt; criteriosVantagensPontuacao) : void&lt;br&gt;&lt;br&gt;" style="verticalAlign=top;align=left;overflow=fill;fontSize=12;fontFamily=Helvetica;html=1;rounded=0;shadow=0;comic=0;labelBackgroundColor=none;strokeWidth=1" vertex="1" parent="1">
          <mxGeometry x="880" y="300" width="530" height="202" as="geometry" />
        </mxCell>
        <mxCell id="jgdyQDmVgWlT551Rcglq-42" style="edgeStyle=orthogonalEdgeStyle;rounded=0;orthogonalLoop=1;jettySize=auto;html=1;exitX=0.5;exitY=0;exitDx=0;exitDy=0;endArrow=block;endFill=0;" edge="1" parent="1" source="jgdyQDmVgWlT551Rcglq-10">
          <mxGeometry relative="1" as="geometry">
            <mxPoint x="2090" y="170" as="targetPoint" />
            <Array as="points">
              <mxPoint x="2340" y="650" />
              <mxPoint x="1970" y="650" />
              <mxPoint x="1970" y="260" />
              <mxPoint x="2090" y="260" />
            </Array>
          </mxGeometry>
        </mxCell>
        <mxCell id="jgdyQDmVgWlT551Rcglq-10" value="&lt;p style=&quot;margin:0px;margin-top:4px;text-align:center;&quot;&gt;&lt;br&gt;&lt;b&gt;InventarioServico&lt;/b&gt;&lt;/p&gt;&lt;hr size=&quot;1&quot;&gt;&lt;p style=&quot;margin: 0px 0px 0px 4px;&quot;&gt;-&amp;nbsp;_usuario : Usuario&lt;/p&gt;&lt;p style=&quot;margin: 0px 0px 0px 4px;&quot;&gt;- _admin : Admin&lt;/p&gt;&lt;hr size=&quot;1&quot;&gt;&lt;p style=&quot;margin:0px;margin-left:4px;&quot;&gt;+ ObterBiblioteca(Admin admin) : Biblioteca&lt;/p&gt;&lt;p style=&quot;margin:0px;margin-left:4px;&quot;&gt;+ ObterInventario(Usuario usuario) : Inventario&lt;/p&gt;&lt;p style=&quot;margin:0px;margin-left:4px;&quot;&gt;+ ObterLivrosSelecionados(string filtroPesquisa) : List&amp;lt;Livro&amp;gt;&lt;/p&gt;&lt;p style=&quot;margin:0px;margin-left:4px;&quot;&gt;&lt;br&gt;&lt;/p&gt;" style="verticalAlign=top;align=left;overflow=fill;fontSize=12;fontFamily=Helvetica;html=1;rounded=0;shadow=0;comic=0;labelBackgroundColor=none;strokeWidth=1" vertex="1" parent="1">
          <mxGeometry x="2170" y="890" width="340" height="140" as="geometry" />
        </mxCell>
        <mxCell id="jgdyQDmVgWlT551Rcglq-11" value="&lt;p style=&quot;margin:0px;margin-top:4px;text-align:center;&quot;&gt;&lt;br&gt;&lt;b&gt;Pessoa&lt;/b&gt;&lt;/p&gt;&lt;hr size=&quot;1&quot;&gt;&lt;p style=&quot;margin: 0px 0px 0px 4px;&quot;&gt;+ Codigo { get; set; } : int&lt;/p&gt;&lt;p style=&quot;margin: 0px 0px 0px 4px;&quot;&gt;+ CPF { get; set; } : string&lt;/p&gt;&amp;nbsp;+ Email { get; set; } : string&amp;nbsp;&lt;br&gt;&amp;nbsp;+ Nome { get; set; } : string&lt;br&gt;&amp;nbsp;+ Senha { get; set; } : string&lt;br&gt;&lt;hr size=&quot;1&quot;&gt;&lt;p style=&quot;margin:0px;margin-left:4px;&quot;&gt;&lt;br&gt;&lt;/p&gt;&lt;p style=&quot;margin:0px;margin-left:4px;&quot;&gt;&lt;br&gt;&lt;/p&gt;" style="verticalAlign=top;align=left;overflow=fill;fontSize=12;fontFamily=Helvetica;html=1;rounded=0;shadow=0;comic=0;labelBackgroundColor=none;strokeWidth=1" vertex="1" parent="1">
          <mxGeometry x="2030" y="1160" width="170" height="140" as="geometry" />
        </mxCell>
        <mxCell id="jgdyQDmVgWlT551Rcglq-19" style="edgeStyle=orthogonalEdgeStyle;rounded=0;orthogonalLoop=1;jettySize=auto;html=1;exitX=0.5;exitY=0;exitDx=0;exitDy=0;entryX=0.25;entryY=1;entryDx=0;entryDy=0;endArrow=block;endFill=0;" edge="1" parent="1" source="jgdyQDmVgWlT551Rcglq-12" target="jgdyQDmVgWlT551Rcglq-11">
          <mxGeometry relative="1" as="geometry">
            <mxPoint x="2100" y="1330" as="targetPoint" />
          </mxGeometry>
        </mxCell>
        <mxCell id="jgdyQDmVgWlT551Rcglq-12" value="&lt;p style=&quot;margin:0px;margin-top:4px;text-align:center;&quot;&gt;&lt;br&gt;&lt;b&gt;Admin&lt;/b&gt;&lt;/p&gt;&lt;hr size=&quot;1&quot;&gt;&lt;p style=&quot;margin: 0px 0px 0px 4px;&quot;&gt;&lt;/p&gt;&amp;nbsp;+ GerenciamentoServico { get; set; } : GerenciamentoServico&amp;nbsp;&lt;br&gt;&lt;hr size=&quot;1&quot;&gt;&lt;p style=&quot;margin:0px;margin-left:4px;&quot;&gt;&lt;br&gt;&lt;/p&gt;&lt;p style=&quot;margin:0px;margin-left:4px;&quot;&gt;&lt;br&gt;&lt;/p&gt;" style="verticalAlign=top;align=left;overflow=fill;fontSize=12;fontFamily=Helvetica;html=1;rounded=0;shadow=0;comic=0;labelBackgroundColor=none;strokeWidth=1" vertex="1" parent="1">
          <mxGeometry x="1760" y="1380" width="340" height="140" as="geometry" />
        </mxCell>
        <mxCell id="jgdyQDmVgWlT551Rcglq-20" style="edgeStyle=orthogonalEdgeStyle;rounded=0;orthogonalLoop=1;jettySize=auto;html=1;exitX=0.5;exitY=0;exitDx=0;exitDy=0;entryX=0.75;entryY=1;entryDx=0;entryDy=0;endArrow=block;endFill=0;" edge="1" parent="1" source="jgdyQDmVgWlT551Rcglq-13" target="jgdyQDmVgWlT551Rcglq-11">
          <mxGeometry relative="1" as="geometry">
            <mxPoint x="2120" y="1350" as="targetPoint" />
          </mxGeometry>
        </mxCell>
        <mxCell id="jgdyQDmVgWlT551Rcglq-13" value="&lt;p style=&quot;margin:0px;margin-top:4px;text-align:center;&quot;&gt;&lt;br&gt;&lt;b&gt;Usuario&lt;/b&gt;&lt;/p&gt;&lt;hr size=&quot;1&quot;&gt;&lt;p style=&quot;margin: 0px 0px 0px 4px;&quot;&gt;&lt;/p&gt;&amp;nbsp;+ CriteriosDoacoes { get; set; } : List&amp;lt;CriteriosDoacao&amp;gt;&amp;nbsp;&lt;br&gt;&amp;nbsp;+ Inventario { get; set; } : Inventario&amp;nbsp;&lt;br&gt;&amp;nbsp;+ VantagensPontuacoes { get; set; } : List&amp;lt;VantagensPontuacao&amp;gt;&amp;nbsp;&lt;br&gt;&lt;hr size=&quot;1&quot;&gt;&lt;p style=&quot;margin:0px;margin-left:4px;&quot;&gt;&lt;br&gt;&lt;/p&gt;&lt;p style=&quot;margin:0px;margin-left:4px;&quot;&gt;&lt;br&gt;&lt;/p&gt;" style="verticalAlign=top;align=left;overflow=fill;fontSize=12;fontFamily=Helvetica;html=1;rounded=0;shadow=0;comic=0;labelBackgroundColor=none;strokeWidth=1" vertex="1" parent="1">
          <mxGeometry x="2120" y="1380" width="360" height="140" as="geometry" />
        </mxCell>
        <mxCell id="jgdyQDmVgWlT551Rcglq-14" value="&lt;p style=&quot;margin:0px;margin-top:4px;text-align:center;&quot;&gt;&lt;br&gt;&lt;b&gt;VantagensPontuacao&lt;/b&gt;&lt;/p&gt;&lt;hr size=&quot;1&quot;&gt;&lt;p style=&quot;margin: 0px 0px 0px 4px;&quot;&gt;+ Codigo { get; set; } : int&lt;/p&gt;&lt;p style=&quot;margin: 0px 0px 0px 4px;&quot;&gt;+ DescricaoVantagemDoacao { get; set; } : string&lt;/p&gt;&amp;nbsp;+ NomeVantagemDoacao { get; set; } : string&amp;nbsp;&lt;br&gt;&amp;nbsp;+ PontosNecessarios { get; set; } : int&lt;br&gt;&amp;nbsp;+ PorcentagemDescontoCompra { get; set; } : decimal&lt;br&gt;&amp;nbsp;+&amp;nbsp;QuantidadeLivrosObtencaoDoacao {get; set; } :string&lt;br&gt;&lt;hr size=&quot;1&quot;&gt;&lt;p style=&quot;margin:0px;margin-left:4px;&quot;&gt;&lt;br&gt;&lt;/p&gt;&lt;p style=&quot;margin:0px;margin-left:4px;&quot;&gt;&lt;br&gt;&lt;/p&gt;" style="verticalAlign=top;align=left;overflow=fill;fontSize=12;fontFamily=Helvetica;html=1;rounded=0;shadow=0;comic=0;labelBackgroundColor=none;strokeWidth=1" vertex="1" parent="1">
          <mxGeometry x="1780" y="1613.5" width="310" height="140" as="geometry" />
        </mxCell>
        <mxCell id="jgdyQDmVgWlT551Rcglq-15" value="&lt;p style=&quot;margin:0px;margin-top:4px;text-align:center;&quot;&gt;&lt;br&gt;&lt;b&gt;CriteriosDoacao&lt;/b&gt;&lt;br&gt;&lt;/p&gt;&lt;hr size=&quot;1&quot;&gt;&lt;p style=&quot;margin: 0px 0px 0px 4px;&quot;&gt;+ Codigo { get; set; } : int&lt;/p&gt;&lt;p style=&quot;margin: 0px 0px 0px 4px;&quot;&gt;+ DescricaoCriterioDoacao { get; set; } : string&lt;/p&gt;&amp;nbsp;+ LivrosHabilitados { get; set; } : List&amp;lt;Livro&amp;gt;&lt;br&gt;&amp;nbsp;+ NomeCriterioDoacao { get; set; } : string&lt;p style=&quot;margin:0px;margin-left:4px;&quot;&gt;&lt;br&gt;&lt;/p&gt;&lt;p style=&quot;margin:0px;margin-left:4px;&quot;&gt;&lt;br&gt;&lt;/p&gt;" style="verticalAlign=top;align=left;overflow=fill;fontSize=12;fontFamily=Helvetica;html=1;rounded=0;shadow=0;comic=0;labelBackgroundColor=none;strokeWidth=1" vertex="1" parent="1">
          <mxGeometry x="1780" y="1773.5" width="310" height="110" as="geometry" />
        </mxCell>
        <mxCell id="jgdyQDmVgWlT551Rcglq-16" value="&lt;p style=&quot;margin:0px;margin-top:4px;text-align:center;&quot;&gt;&lt;br&gt;&lt;b&gt;Livro&lt;/b&gt;&lt;/p&gt;&lt;hr size=&quot;1&quot;&gt;&lt;p style=&quot;margin: 0px 0px 0px 4px;&quot;&gt;+ Codigo { get; set; } : int&lt;/p&gt;&lt;p style=&quot;margin: 0px 0px 0px 4px;&quot;&gt;+ Ano { get; set; } : int&lt;/p&gt;&amp;nbsp;+ Autor { get; set; } : string&amp;nbsp;&lt;br&gt;&amp;nbsp;+ Edicao { get; set; } : int&lt;br&gt;&amp;nbsp;+ Editora { get; set; } : string&lt;br&gt;&amp;nbsp;+&amp;nbsp;ISBN {get; set; } : string&lt;br&gt;&amp;nbsp;+ Nota { get; set; } : decimal&lt;br&gt;&amp;nbsp;+&amp;nbsp;Titulo {get; set; } : string&lt;br&gt;&lt;hr size=&quot;1&quot;&gt;&lt;p style=&quot;margin:0px;margin-left:4px;&quot;&gt;&lt;br&gt;&lt;/p&gt;&lt;p style=&quot;margin:0px;margin-left:4px;&quot;&gt;&lt;br&gt;&lt;/p&gt;" style="verticalAlign=top;align=left;overflow=fill;fontSize=12;fontFamily=Helvetica;html=1;rounded=0;shadow=0;comic=0;labelBackgroundColor=none;strokeWidth=1" vertex="1" parent="1">
          <mxGeometry x="1780" y="1903.5" width="180" height="200" as="geometry" />
        </mxCell>
        <mxCell id="jgdyQDmVgWlT551Rcglq-17" value="&lt;p style=&quot;margin:0px;margin-top:4px;text-align:center;&quot;&gt;&lt;br&gt;&lt;b&gt;Biblioteca&lt;/b&gt;&lt;/p&gt;&lt;hr size=&quot;1&quot;&gt;&lt;p style=&quot;margin: 0px 0px 0px 4px;&quot;&gt;+ Admin { get; set; } : List&amp;lt;Admin&amp;gt;&lt;/p&gt;&lt;p style=&quot;margin: 0px 0px 0px 4px;&quot;&gt;+ Codigo { get; set; } : int&lt;/p&gt;&amp;nbsp;+ Livros { get; set; } : List&amp;lt;Livro&amp;gt;&amp;nbsp;&lt;br&gt;&amp;nbsp;+ Nome { get; set; } : string&lt;br&gt;&amp;nbsp;+ Usuarios { get; set; } : List&amp;lt;Usuario&amp;gt;&lt;br&gt;&lt;hr size=&quot;1&quot;&gt;&lt;p style=&quot;margin:0px;margin-left:4px;&quot;&gt;&lt;br&gt;&lt;/p&gt;&lt;p style=&quot;margin:0px;margin-left:4px;&quot;&gt;&lt;br&gt;&lt;/p&gt;" style="verticalAlign=top;align=left;overflow=fill;fontSize=12;fontFamily=Helvetica;html=1;rounded=0;shadow=0;comic=0;labelBackgroundColor=none;strokeWidth=1" vertex="1" parent="1">
          <mxGeometry x="1970" y="1903.5" width="210" height="200" as="geometry" />
        </mxCell>
        <mxCell id="jgdyQDmVgWlT551Rcglq-18" value="&lt;p style=&quot;margin:0px;margin-top:4px;text-align:center;&quot;&gt;&lt;br&gt;&lt;b&gt;Inventario&lt;/b&gt;&lt;/p&gt;&lt;hr size=&quot;1&quot;&gt;&lt;p style=&quot;margin: 0px 0px 0px 4px;&quot;&gt;&lt;span style=&quot;background-color: initial;&quot;&gt;+ Codigo { get; set; } : int&lt;/span&gt;&lt;br&gt;&lt;/p&gt;&amp;nbsp;+ LivrosAtrasados { get; set; } : List&amp;lt;Livro&amp;gt;&amp;nbsp;&lt;br&gt;&amp;nbsp;+ LivrosDoacaoRecebida { get; set; } : List&amp;lt;Livro&amp;gt;&amp;nbsp;&lt;br&gt;&amp;nbsp;+ LivrosDoados { get; set; } : List&amp;lt;Livro&amp;gt;&amp;nbsp;&lt;br&gt;&amp;nbsp;+ LivrosEmprestados { get; set; } : List&amp;lt;Livro&amp;gt;&amp;nbsp;&lt;br&gt;&amp;nbsp;+ LivrosInventario { get; set; } : List&amp;lt;Livro&amp;gt;&amp;nbsp;&lt;br&gt;&amp;nbsp;+ LivrosReservados { get; set; } : List&amp;lt;Livro&amp;gt;&amp;nbsp;&lt;hr size=&quot;1&quot;&gt;&lt;p style=&quot;margin:0px;margin-left:4px;&quot;&gt;&lt;br&gt;&lt;/p&gt;&lt;p style=&quot;margin:0px;margin-left:4px;&quot;&gt;&lt;br&gt;&lt;/p&gt;" style="verticalAlign=top;align=left;overflow=fill;fontSize=12;fontFamily=Helvetica;html=1;rounded=0;shadow=0;comic=0;labelBackgroundColor=none;strokeWidth=1" vertex="1" parent="1">
          <mxGeometry x="2200" y="1613.5" width="280" height="200" as="geometry" />
        </mxCell>
        <mxCell id="jgdyQDmVgWlT551Rcglq-32" value="&lt;p style=&quot;margin:0px;margin-top:4px;text-align:center;&quot;&gt;&lt;br&gt;&lt;b&gt;ServicoBase&lt;/b&gt;&lt;/p&gt;&lt;hr size=&quot;1&quot;&gt;&lt;p style=&quot;margin:0px;margin-left:4px;&quot;&gt;&lt;br&gt;&lt;/p&gt;&lt;hr size=&quot;1&quot;&gt;&lt;p style=&quot;margin:0px;margin-left:4px;&quot;&gt;+ void RegistrarHistorico(Pessoa pessoa, string acao) : void&lt;/p&gt;" style="verticalAlign=top;align=left;overflow=fill;fontSize=12;fontFamily=Helvetica;html=1;rounded=0;shadow=0;comic=0;labelBackgroundColor=none;strokeWidth=1" vertex="1" parent="1">
          <mxGeometry x="1920" y="30" width="340" height="140" as="geometry" />
        </mxCell>
        <mxCell id="jgdyQDmVgWlT551Rcglq-33" value="&lt;p style=&quot;margin:0px;margin-top:4px;text-align:center;&quot;&gt;&lt;br&gt;&lt;b&gt;ServicoBase&lt;/b&gt;&lt;/p&gt;&lt;hr size=&quot;1&quot;&gt;&lt;p style=&quot;margin:0px;margin-left:4px;&quot;&gt;&lt;br&gt;&lt;/p&gt;&lt;hr size=&quot;1&quot;&gt;&lt;p style=&quot;margin:0px;margin-left:4px;&quot;&gt;+ void RegistrarHistorico(Pessoa pessoa, string acao) : void&lt;/p&gt;" style="verticalAlign=top;align=left;overflow=fill;fontSize=12;fontFamily=Helvetica;html=1;rounded=0;shadow=0;comic=0;labelBackgroundColor=none;strokeWidth=1" vertex="1" parent="1">
          <mxGeometry x="1100" y="1140" width="340" height="140" as="geometry" />
        </mxCell>
      </root>
    </mxGraphModel>
  </diagram>
</mxfile>
